<mxfile host="app.diagrams.net" modified="2023-09-01T01:16:55.386Z" agent="Mozilla/5.0 (Windows NT 10.0; Win64; x64) AppleWebKit/537.36 (KHTML, like Gecko) Chrome/116.0.0.0 Safari/537.36 Edg/116.0.1938.62" etag="4KMxRLim5thaWDqAc8Iy" version="21.7.1" type="github">
  <diagram id="R2lEEEUBdFMjLlhIrx00" name="Page-1">
    <mxGraphModel dx="1042" dy="551" grid="1" gridSize="10" guides="1" tooltips="1" connect="1" arrows="1" fold="1" page="1" pageScale="1" pageWidth="850" pageHeight="1100" math="0" shadow="0" extFonts="Permanent Marker^https://fonts.googleapis.com/css?family=Permanent+Marker">
      <root>
        <mxCell id="0" />
        <mxCell id="1" parent="0" />
        <mxCell id="qH5SO-dXOydmvp4aONVi-4" value="Usuario" style="whiteSpace=wrap;html=1;align=center;" parent="1" vertex="1">
          <mxGeometry x="215" y="580" width="100" height="40" as="geometry" />
        </mxCell>
        <mxCell id="qH5SO-dXOydmvp4aONVi-5" value="Cliente" style="whiteSpace=wrap;html=1;align=center;" parent="1" vertex="1">
          <mxGeometry x="520" y="430" width="100" height="40" as="geometry" />
        </mxCell>
        <mxCell id="qH5SO-dXOydmvp4aONVi-6" value="Agenda" style="whiteSpace=wrap;html=1;align=center;" parent="1" vertex="1">
          <mxGeometry x="215" y="280" width="100" height="40" as="geometry" />
        </mxCell>
        <mxCell id="qH5SO-dXOydmvp4aONVi-7" value="Direccion" style="shape=ext;margin=3;double=1;whiteSpace=wrap;html=1;align=center;" parent="1" vertex="1">
          <mxGeometry x="520" y="160" width="100" height="40" as="geometry" />
        </mxCell>
        <mxCell id="qH5SO-dXOydmvp4aONVi-13" style="rounded=0;orthogonalLoop=1;jettySize=auto;html=1;exitX=0.5;exitY=1;exitDx=0;exitDy=0;entryX=0;entryY=0;entryDx=0;entryDy=0;endArrow=none;endFill=0;" parent="1" source="qH5SO-dXOydmvp4aONVi-9" target="qH5SO-dXOydmvp4aONVi-6" edge="1">
          <mxGeometry relative="1" as="geometry" />
        </mxCell>
        <mxCell id="qH5SO-dXOydmvp4aONVi-9" value="idCita" style="ellipse;whiteSpace=wrap;html=1;align=center;fontStyle=4;" parent="1" vertex="1">
          <mxGeometry x="115" y="130" width="100" height="40" as="geometry" />
        </mxCell>
        <mxCell id="qH5SO-dXOydmvp4aONVi-14" style="rounded=0;orthogonalLoop=1;jettySize=auto;html=1;exitX=1;exitY=0.5;exitDx=0;exitDy=0;entryX=0;entryY=0.25;entryDx=0;entryDy=0;endArrow=none;endFill=0;" parent="1" source="qH5SO-dXOydmvp4aONVi-10" target="qH5SO-dXOydmvp4aONVi-6" edge="1">
          <mxGeometry relative="1" as="geometry" />
        </mxCell>
        <mxCell id="qH5SO-dXOydmvp4aONVi-10" value="idDireccion" style="ellipse;whiteSpace=wrap;html=1;align=center;dashed=1;" parent="1" vertex="1">
          <mxGeometry x="50" y="180" width="100" height="40" as="geometry" />
        </mxCell>
        <mxCell id="qH5SO-dXOydmvp4aONVi-15" style="rounded=0;orthogonalLoop=1;jettySize=auto;html=1;exitX=1;exitY=0.5;exitDx=0;exitDy=0;entryX=0;entryY=0.5;entryDx=0;entryDy=0;endArrow=none;endFill=0;" parent="1" source="qH5SO-dXOydmvp4aONVi-11" target="qH5SO-dXOydmvp4aONVi-6" edge="1">
          <mxGeometry relative="1" as="geometry" />
        </mxCell>
        <mxCell id="qH5SO-dXOydmvp4aONVi-11" value="fechaInicio" style="ellipse;whiteSpace=wrap;html=1;align=center;" parent="1" vertex="1">
          <mxGeometry y="330" width="100" height="40" as="geometry" />
        </mxCell>
        <mxCell id="qH5SO-dXOydmvp4aONVi-16" style="rounded=0;orthogonalLoop=1;jettySize=auto;html=1;exitX=1;exitY=0;exitDx=0;exitDy=0;entryX=0;entryY=1;entryDx=0;entryDy=0;endArrow=none;endFill=0;" parent="1" source="qH5SO-dXOydmvp4aONVi-12" target="qH5SO-dXOydmvp4aONVi-6" edge="1">
          <mxGeometry relative="1" as="geometry">
            <mxPoint x="400" y="360" as="sourcePoint" />
          </mxGeometry>
        </mxCell>
        <mxCell id="qH5SO-dXOydmvp4aONVi-12" value="hora" style="ellipse;whiteSpace=wrap;html=1;align=center;" parent="1" vertex="1">
          <mxGeometry x="50" y="430" width="100" height="40" as="geometry" />
        </mxCell>
        <mxCell id="qH5SO-dXOydmvp4aONVi-17" style="edgeStyle=orthogonalEdgeStyle;rounded=0;orthogonalLoop=1;jettySize=auto;html=1;exitX=0.5;exitY=1;exitDx=0;exitDy=0;" parent="1" source="qH5SO-dXOydmvp4aONVi-6" target="qH5SO-dXOydmvp4aONVi-6" edge="1">
          <mxGeometry relative="1" as="geometry" />
        </mxCell>
        <mxCell id="qH5SO-dXOydmvp4aONVi-18" value="tiene" style="shape=rhombus;perimeter=rhombusPerimeter;whiteSpace=wrap;html=1;align=center;" parent="1" vertex="1">
          <mxGeometry x="510" y="290" width="120" height="60" as="geometry" />
        </mxCell>
        <mxCell id="qH5SO-dXOydmvp4aONVi-22" value="tiene" style="shape=rhombus;perimeter=rhombusPerimeter;whiteSpace=wrap;html=1;align=center;" parent="1" vertex="1">
          <mxGeometry x="205" y="150" width="120" height="60" as="geometry" />
        </mxCell>
        <mxCell id="qH5SO-dXOydmvp4aONVi-37" style="rounded=0;orthogonalLoop=1;jettySize=auto;html=1;exitX=0.5;exitY=1;exitDx=0;exitDy=0;entryX=0.25;entryY=0;entryDx=0;entryDy=0;endArrow=none;endFill=0;" parent="1" source="qH5SO-dXOydmvp4aONVi-25" target="qH5SO-dXOydmvp4aONVi-7" edge="1">
          <mxGeometry relative="1" as="geometry" />
        </mxCell>
        <mxCell id="qH5SO-dXOydmvp4aONVi-25" value="calle" style="ellipse;whiteSpace=wrap;html=1;align=center;" parent="1" vertex="1">
          <mxGeometry x="410" y="40" width="100" height="40" as="geometry" />
        </mxCell>
        <mxCell id="qH5SO-dXOydmvp4aONVi-36" style="rounded=0;orthogonalLoop=1;jettySize=auto;html=1;exitX=0.5;exitY=1;exitDx=0;exitDy=0;entryX=0;entryY=0;entryDx=0;entryDy=0;endArrow=none;endFill=0;" parent="1" source="qH5SO-dXOydmvp4aONVi-26" target="qH5SO-dXOydmvp4aONVi-7" edge="1">
          <mxGeometry relative="1" as="geometry" />
        </mxCell>
        <mxCell id="qH5SO-dXOydmvp4aONVi-26" value="idDireccion" style="ellipse;whiteSpace=wrap;html=1;align=center;fontStyle=4;" parent="1" vertex="1">
          <mxGeometry x="360" y="80" width="100" height="40" as="geometry" />
        </mxCell>
        <mxCell id="qH5SO-dXOydmvp4aONVi-38" style="rounded=0;orthogonalLoop=1;jettySize=auto;html=1;exitX=0.5;exitY=1;exitDx=0;exitDy=0;entryX=0.5;entryY=0;entryDx=0;entryDy=0;endArrow=none;endFill=0;" parent="1" source="qH5SO-dXOydmvp4aONVi-27" target="qH5SO-dXOydmvp4aONVi-7" edge="1">
          <mxGeometry relative="1" as="geometry" />
        </mxCell>
        <mxCell id="qH5SO-dXOydmvp4aONVi-27" value="numeroExterior" style="ellipse;whiteSpace=wrap;html=1;align=center;" parent="1" vertex="1">
          <mxGeometry x="470" width="100" height="40" as="geometry" />
        </mxCell>
        <mxCell id="qH5SO-dXOydmvp4aONVi-39" style="rounded=0;orthogonalLoop=1;jettySize=auto;html=1;exitX=0;exitY=1;exitDx=0;exitDy=0;entryX=0.75;entryY=0;entryDx=0;entryDy=0;endArrow=none;endFill=0;" parent="1" source="qH5SO-dXOydmvp4aONVi-28" target="qH5SO-dXOydmvp4aONVi-7" edge="1">
          <mxGeometry relative="1" as="geometry" />
        </mxCell>
        <mxCell id="qH5SO-dXOydmvp4aONVi-28" value="numeroInterior" style="ellipse;whiteSpace=wrap;html=1;align=center;" parent="1" vertex="1">
          <mxGeometry x="580" width="100" height="40" as="geometry" />
        </mxCell>
        <mxCell id="qH5SO-dXOydmvp4aONVi-41" style="rounded=0;orthogonalLoop=1;jettySize=auto;html=1;exitX=0;exitY=1;exitDx=0;exitDy=0;entryX=1;entryY=0.25;entryDx=0;entryDy=0;endArrow=none;endFill=0;" parent="1" source="qH5SO-dXOydmvp4aONVi-29" target="qH5SO-dXOydmvp4aONVi-7" edge="1">
          <mxGeometry relative="1" as="geometry" />
        </mxCell>
        <mxCell id="qH5SO-dXOydmvp4aONVi-29" value="cp" style="ellipse;whiteSpace=wrap;html=1;align=center;" parent="1" vertex="1">
          <mxGeometry x="710" y="70" width="100" height="40" as="geometry" />
        </mxCell>
        <mxCell id="qH5SO-dXOydmvp4aONVi-40" style="rounded=0;orthogonalLoop=1;jettySize=auto;html=1;exitX=0;exitY=1;exitDx=0;exitDy=0;entryX=1;entryY=0;entryDx=0;entryDy=0;endArrow=none;endFill=0;" parent="1" source="qH5SO-dXOydmvp4aONVi-30" target="qH5SO-dXOydmvp4aONVi-7" edge="1">
          <mxGeometry relative="1" as="geometry" />
        </mxCell>
        <mxCell id="qH5SO-dXOydmvp4aONVi-30" value="pais" style="ellipse;whiteSpace=wrap;html=1;align=center;" parent="1" vertex="1">
          <mxGeometry x="680" y="20" width="100" height="40" as="geometry" />
        </mxCell>
        <mxCell id="qH5SO-dXOydmvp4aONVi-44" style="rounded=0;orthogonalLoop=1;jettySize=auto;html=1;exitX=0;exitY=0.5;exitDx=0;exitDy=0;entryX=1;entryY=1;entryDx=0;entryDy=0;endArrow=none;endFill=0;" parent="1" source="qH5SO-dXOydmvp4aONVi-31" target="qH5SO-dXOydmvp4aONVi-7" edge="1">
          <mxGeometry relative="1" as="geometry" />
        </mxCell>
        <mxCell id="qH5SO-dXOydmvp4aONVi-31" value="localidad" style="ellipse;whiteSpace=wrap;html=1;align=center;" parent="1" vertex="1">
          <mxGeometry x="720" y="230" width="100" height="40" as="geometry" />
        </mxCell>
        <mxCell id="qH5SO-dXOydmvp4aONVi-45" style="rounded=0;orthogonalLoop=1;jettySize=auto;html=1;exitX=0;exitY=0.5;exitDx=0;exitDy=0;entryX=0.75;entryY=1;entryDx=0;entryDy=0;endArrow=none;endFill=0;" parent="1" source="qH5SO-dXOydmvp4aONVi-32" target="qH5SO-dXOydmvp4aONVi-7" edge="1">
          <mxGeometry relative="1" as="geometry" />
        </mxCell>
        <mxCell id="qH5SO-dXOydmvp4aONVi-32" value="colonia" style="ellipse;whiteSpace=wrap;html=1;align=center;" parent="1" vertex="1">
          <mxGeometry x="720" y="280" width="100" height="40" as="geometry" />
        </mxCell>
        <mxCell id="qH5SO-dXOydmvp4aONVi-46" style="rounded=0;orthogonalLoop=1;jettySize=auto;html=1;exitX=0;exitY=0;exitDx=0;exitDy=0;entryX=0.5;entryY=1;entryDx=0;entryDy=0;endArrow=none;endFill=0;" parent="1" source="qH5SO-dXOydmvp4aONVi-33" target="qH5SO-dXOydmvp4aONVi-7" edge="1">
          <mxGeometry relative="1" as="geometry" />
        </mxCell>
        <mxCell id="qH5SO-dXOydmvp4aONVi-33" value="referencia" style="ellipse;whiteSpace=wrap;html=1;align=center;" parent="1" vertex="1">
          <mxGeometry x="710" y="330" width="100" height="40" as="geometry" />
        </mxCell>
        <mxCell id="qH5SO-dXOydmvp4aONVi-43" style="rounded=0;orthogonalLoop=1;jettySize=auto;html=1;exitX=0;exitY=0.5;exitDx=0;exitDy=0;entryX=1;entryY=0.75;entryDx=0;entryDy=0;endArrow=none;endFill=0;" parent="1" source="qH5SO-dXOydmvp4aONVi-34" target="qH5SO-dXOydmvp4aONVi-7" edge="1">
          <mxGeometry relative="1" as="geometry" />
        </mxCell>
        <mxCell id="qH5SO-dXOydmvp4aONVi-34" value="delegacionMunicipio" style="ellipse;whiteSpace=wrap;html=1;align=center;" parent="1" vertex="1">
          <mxGeometry x="710" y="180" width="120" height="40" as="geometry" />
        </mxCell>
        <mxCell id="qH5SO-dXOydmvp4aONVi-42" style="rounded=0;orthogonalLoop=1;jettySize=auto;html=1;exitX=0;exitY=0.5;exitDx=0;exitDy=0;entryX=1;entryY=0.5;entryDx=0;entryDy=0;endArrow=none;endFill=0;" parent="1" source="qH5SO-dXOydmvp4aONVi-35" target="qH5SO-dXOydmvp4aONVi-7" edge="1">
          <mxGeometry relative="1" as="geometry" />
        </mxCell>
        <mxCell id="qH5SO-dXOydmvp4aONVi-35" value="entidad" style="ellipse;whiteSpace=wrap;html=1;align=center;" parent="1" vertex="1">
          <mxGeometry x="720" y="130" width="100" height="40" as="geometry" />
        </mxCell>
        <mxCell id="qH5SO-dXOydmvp4aONVi-48" value="registra" style="shape=rhombus;perimeter=rhombusPerimeter;whiteSpace=wrap;html=1;align=center;" parent="1" vertex="1">
          <mxGeometry x="205" y="420" width="120" height="60" as="geometry" />
        </mxCell>
        <mxCell id="qH5SO-dXOydmvp4aONVi-56" value="" style="endArrow=none;html=1;rounded=0;entryX=0.5;entryY=1;entryDx=0;entryDy=0;exitX=0.5;exitY=0;exitDx=0;exitDy=0;" parent="1" source="qH5SO-dXOydmvp4aONVi-4" target="qH5SO-dXOydmvp4aONVi-48" edge="1">
          <mxGeometry relative="1" as="geometry">
            <mxPoint x="400" y="510" as="sourcePoint" />
            <mxPoint x="560" y="510" as="targetPoint" />
          </mxGeometry>
        </mxCell>
        <mxCell id="qH5SO-dXOydmvp4aONVi-57" value="1" style="resizable=0;html=1;whiteSpace=wrap;align=left;verticalAlign=bottom;" parent="qH5SO-dXOydmvp4aONVi-56" connectable="0" vertex="1">
          <mxGeometry x="-1" relative="1" as="geometry" />
        </mxCell>
        <mxCell id="qH5SO-dXOydmvp4aONVi-58" value="1" style="resizable=0;html=1;whiteSpace=wrap;align=right;verticalAlign=bottom;" parent="qH5SO-dXOydmvp4aONVi-56" connectable="0" vertex="1">
          <mxGeometry x="1" relative="1" as="geometry">
            <mxPoint y="20" as="offset" />
          </mxGeometry>
        </mxCell>
        <mxCell id="qH5SO-dXOydmvp4aONVi-59" value="" style="endArrow=none;html=1;rounded=0;entryX=0.5;entryY=1;entryDx=0;entryDy=0;exitX=0.5;exitY=0;exitDx=0;exitDy=0;" parent="1" source="qH5SO-dXOydmvp4aONVi-48" target="qH5SO-dXOydmvp4aONVi-6" edge="1">
          <mxGeometry relative="1" as="geometry">
            <mxPoint x="370" y="430" as="sourcePoint" />
            <mxPoint x="370" y="330" as="targetPoint" />
          </mxGeometry>
        </mxCell>
        <mxCell id="qH5SO-dXOydmvp4aONVi-60" value="1" style="resizable=0;html=1;whiteSpace=wrap;align=left;verticalAlign=bottom;" parent="qH5SO-dXOydmvp4aONVi-59" connectable="0" vertex="1">
          <mxGeometry x="-1" relative="1" as="geometry" />
        </mxCell>
        <mxCell id="qH5SO-dXOydmvp4aONVi-61" value="1" style="resizable=0;html=1;whiteSpace=wrap;align=right;verticalAlign=bottom;" parent="qH5SO-dXOydmvp4aONVi-59" connectable="0" vertex="1">
          <mxGeometry x="1" relative="1" as="geometry">
            <mxPoint y="20" as="offset" />
          </mxGeometry>
        </mxCell>
        <mxCell id="qH5SO-dXOydmvp4aONVi-62" value="" style="endArrow=none;html=1;rounded=0;entryX=0.5;entryY=1;entryDx=0;entryDy=0;exitX=0.5;exitY=0;exitDx=0;exitDy=0;" parent="1" source="qH5SO-dXOydmvp4aONVi-6" target="qH5SO-dXOydmvp4aONVi-22" edge="1">
          <mxGeometry relative="1" as="geometry">
            <mxPoint x="264.5" y="300" as="sourcePoint" />
            <mxPoint x="264.5" y="220" as="targetPoint" />
          </mxGeometry>
        </mxCell>
        <mxCell id="qH5SO-dXOydmvp4aONVi-63" value="1" style="resizable=0;html=1;whiteSpace=wrap;align=left;verticalAlign=bottom;" parent="qH5SO-dXOydmvp4aONVi-62" connectable="0" vertex="1">
          <mxGeometry x="-1" relative="1" as="geometry" />
        </mxCell>
        <mxCell id="qH5SO-dXOydmvp4aONVi-64" value="1" style="resizable=0;html=1;whiteSpace=wrap;align=right;verticalAlign=bottom;" parent="qH5SO-dXOydmvp4aONVi-62" connectable="0" vertex="1">
          <mxGeometry x="1" relative="1" as="geometry">
            <mxPoint y="20" as="offset" />
          </mxGeometry>
        </mxCell>
        <mxCell id="qH5SO-dXOydmvp4aONVi-65" value="" style="endArrow=none;html=1;rounded=0;entryX=1;entryY=0.5;entryDx=0;entryDy=0;exitX=0;exitY=0.5;exitDx=0;exitDy=0;" parent="1" source="qH5SO-dXOydmvp4aONVi-7" target="qH5SO-dXOydmvp4aONVi-22" edge="1">
          <mxGeometry relative="1" as="geometry">
            <mxPoint x="490" y="220" as="sourcePoint" />
            <mxPoint x="400" y="150" as="targetPoint" />
          </mxGeometry>
        </mxCell>
        <mxCell id="qH5SO-dXOydmvp4aONVi-66" value="1" style="resizable=0;html=1;whiteSpace=wrap;align=left;verticalAlign=bottom;" parent="qH5SO-dXOydmvp4aONVi-65" connectable="0" vertex="1">
          <mxGeometry x="-1" relative="1" as="geometry">
            <mxPoint x="-10" as="offset" />
          </mxGeometry>
        </mxCell>
        <mxCell id="qH5SO-dXOydmvp4aONVi-67" value="1" style="resizable=0;html=1;whiteSpace=wrap;align=right;verticalAlign=bottom;" parent="qH5SO-dXOydmvp4aONVi-65" connectable="0" vertex="1">
          <mxGeometry x="1" relative="1" as="geometry">
            <mxPoint y="20" as="offset" />
          </mxGeometry>
        </mxCell>
        <mxCell id="qH5SO-dXOydmvp4aONVi-68" value="" style="endArrow=none;html=1;rounded=0;entryX=0.5;entryY=1;entryDx=0;entryDy=0;exitX=0.5;exitY=0;exitDx=0;exitDy=0;" parent="1" source="qH5SO-dXOydmvp4aONVi-18" target="qH5SO-dXOydmvp4aONVi-7" edge="1">
          <mxGeometry relative="1" as="geometry">
            <mxPoint x="550" y="295" as="sourcePoint" />
            <mxPoint x="550" y="205" as="targetPoint" />
          </mxGeometry>
        </mxCell>
        <mxCell id="qH5SO-dXOydmvp4aONVi-69" value="1" style="resizable=0;html=1;whiteSpace=wrap;align=left;verticalAlign=bottom;" parent="qH5SO-dXOydmvp4aONVi-68" connectable="0" vertex="1">
          <mxGeometry x="-1" relative="1" as="geometry" />
        </mxCell>
        <mxCell id="qH5SO-dXOydmvp4aONVi-70" value="1" style="resizable=0;html=1;whiteSpace=wrap;align=right;verticalAlign=bottom;" parent="qH5SO-dXOydmvp4aONVi-68" connectable="0" vertex="1">
          <mxGeometry x="1" relative="1" as="geometry">
            <mxPoint y="20" as="offset" />
          </mxGeometry>
        </mxCell>
        <mxCell id="qH5SO-dXOydmvp4aONVi-71" value="" style="endArrow=none;html=1;rounded=0;entryX=0.5;entryY=1;entryDx=0;entryDy=0;exitX=0.5;exitY=0;exitDx=0;exitDy=0;" parent="1" source="qH5SO-dXOydmvp4aONVi-5" target="qH5SO-dXOydmvp4aONVi-18" edge="1">
          <mxGeometry relative="1" as="geometry">
            <mxPoint x="510" y="430" as="sourcePoint" />
            <mxPoint x="510" y="340" as="targetPoint" />
          </mxGeometry>
        </mxCell>
        <mxCell id="qH5SO-dXOydmvp4aONVi-72" value="1" style="resizable=0;html=1;whiteSpace=wrap;align=left;verticalAlign=bottom;" parent="qH5SO-dXOydmvp4aONVi-71" connectable="0" vertex="1">
          <mxGeometry x="-1" relative="1" as="geometry" />
        </mxCell>
        <mxCell id="qH5SO-dXOydmvp4aONVi-73" value="1" style="resizable=0;html=1;whiteSpace=wrap;align=right;verticalAlign=bottom;" parent="qH5SO-dXOydmvp4aONVi-71" connectable="0" vertex="1">
          <mxGeometry x="1" relative="1" as="geometry">
            <mxPoint y="20" as="offset" />
          </mxGeometry>
        </mxCell>
        <mxCell id="qH5SO-dXOydmvp4aONVi-81" style="rounded=0;orthogonalLoop=1;jettySize=auto;html=1;exitX=1;exitY=1;exitDx=0;exitDy=0;entryX=0;entryY=0;entryDx=0;entryDy=0;endArrow=none;endFill=0;" parent="1" source="qH5SO-dXOydmvp4aONVi-74" target="qH5SO-dXOydmvp4aONVi-4" edge="1">
          <mxGeometry relative="1" as="geometry" />
        </mxCell>
        <mxCell id="qH5SO-dXOydmvp4aONVi-74" value="idUsuario" style="ellipse;whiteSpace=wrap;html=1;align=center;fontStyle=4;" parent="1" vertex="1">
          <mxGeometry x="90" y="520" width="100" height="40" as="geometry" />
        </mxCell>
        <mxCell id="qH5SO-dXOydmvp4aONVi-82" style="rounded=0;orthogonalLoop=1;jettySize=auto;html=1;exitX=1;exitY=0.5;exitDx=0;exitDy=0;entryX=0;entryY=0.5;entryDx=0;entryDy=0;endArrow=none;endFill=0;" parent="1" source="qH5SO-dXOydmvp4aONVi-76" target="qH5SO-dXOydmvp4aONVi-4" edge="1">
          <mxGeometry relative="1" as="geometry" />
        </mxCell>
        <mxCell id="qH5SO-dXOydmvp4aONVi-76" value="hora" style="ellipse;whiteSpace=wrap;html=1;align=center;" parent="1" vertex="1">
          <mxGeometry x="80" y="580" width="100" height="40" as="geometry" />
        </mxCell>
        <mxCell id="qH5SO-dXOydmvp4aONVi-83" style="rounded=0;orthogonalLoop=1;jettySize=auto;html=1;exitX=1;exitY=0;exitDx=0;exitDy=0;entryX=0;entryY=1;entryDx=0;entryDy=0;endArrow=none;endFill=0;" parent="1" source="qH5SO-dXOydmvp4aONVi-77" target="qH5SO-dXOydmvp4aONVi-4" edge="1">
          <mxGeometry relative="1" as="geometry" />
        </mxCell>
        <mxCell id="qH5SO-dXOydmvp4aONVi-77" value="hora" style="ellipse;whiteSpace=wrap;html=1;align=center;" parent="1" vertex="1">
          <mxGeometry x="100" y="640" width="100" height="40" as="geometry" />
        </mxCell>
        <mxCell id="qH5SO-dXOydmvp4aONVi-84" style="rounded=0;orthogonalLoop=1;jettySize=auto;html=1;exitX=0.5;exitY=0;exitDx=0;exitDy=0;entryX=0.25;entryY=1;entryDx=0;entryDy=0;endArrow=none;endFill=0;" parent="1" source="qH5SO-dXOydmvp4aONVi-78" target="qH5SO-dXOydmvp4aONVi-4" edge="1">
          <mxGeometry relative="1" as="geometry" />
        </mxCell>
        <mxCell id="qH5SO-dXOydmvp4aONVi-78" value="hora" style="ellipse;whiteSpace=wrap;html=1;align=center;" parent="1" vertex="1">
          <mxGeometry x="150" y="690" width="100" height="40" as="geometry" />
        </mxCell>
        <mxCell id="qH5SO-dXOydmvp4aONVi-85" style="rounded=0;orthogonalLoop=1;jettySize=auto;html=1;exitX=0.5;exitY=0;exitDx=0;exitDy=0;entryX=0.5;entryY=1;entryDx=0;entryDy=0;endArrow=none;endFill=0;" parent="1" source="qH5SO-dXOydmvp4aONVi-79" target="qH5SO-dXOydmvp4aONVi-4" edge="1">
          <mxGeometry relative="1" as="geometry" />
        </mxCell>
        <mxCell id="qH5SO-dXOydmvp4aONVi-79" value="hora" style="ellipse;whiteSpace=wrap;html=1;align=center;" parent="1" vertex="1">
          <mxGeometry x="225" y="730" width="100" height="40" as="geometry" />
        </mxCell>
        <mxCell id="qH5SO-dXOydmvp4aONVi-86" style="rounded=0;orthogonalLoop=1;jettySize=auto;html=1;exitX=0.28;exitY=0.1;exitDx=0;exitDy=0;entryX=0.75;entryY=1;entryDx=0;entryDy=0;endArrow=none;endFill=0;exitPerimeter=0;" parent="1" source="qH5SO-dXOydmvp4aONVi-80" target="qH5SO-dXOydmvp4aONVi-4" edge="1">
          <mxGeometry relative="1" as="geometry" />
        </mxCell>
        <mxCell id="qH5SO-dXOydmvp4aONVi-80" value="hora" style="ellipse;whiteSpace=wrap;html=1;align=center;" parent="1" vertex="1">
          <mxGeometry x="290" y="680" width="100" height="40" as="geometry" />
        </mxCell>
        <mxCell id="qH5SO-dXOydmvp4aONVi-100" style="rounded=0;orthogonalLoop=1;jettySize=auto;html=1;exitX=0;exitY=0.5;exitDx=0;exitDy=0;entryX=1;entryY=0;entryDx=0;entryDy=0;endArrow=none;endFill=0;" parent="1" source="qH5SO-dXOydmvp4aONVi-87" target="qH5SO-dXOydmvp4aONVi-5" edge="1">
          <mxGeometry relative="1" as="geometry" />
        </mxCell>
        <mxCell id="qH5SO-dXOydmvp4aONVi-87" value="idCliente" style="ellipse;whiteSpace=wrap;html=1;align=center;fontStyle=4;" parent="1" vertex="1">
          <mxGeometry x="670" y="380" width="100" height="40" as="geometry" />
        </mxCell>
        <mxCell id="qH5SO-dXOydmvp4aONVi-101" style="rounded=0;orthogonalLoop=1;jettySize=auto;html=1;exitX=0;exitY=0.5;exitDx=0;exitDy=0;entryX=1;entryY=0.25;entryDx=0;entryDy=0;endArrow=none;endFill=0;" parent="1" source="qH5SO-dXOydmvp4aONVi-88" target="qH5SO-dXOydmvp4aONVi-5" edge="1">
          <mxGeometry relative="1" as="geometry" />
        </mxCell>
        <mxCell id="qH5SO-dXOydmvp4aONVi-88" value="idDireccion" style="ellipse;whiteSpace=wrap;html=1;align=center;dashed=1;" parent="1" vertex="1">
          <mxGeometry x="720" y="420" width="100" height="40" as="geometry" />
        </mxCell>
        <mxCell id="qH5SO-dXOydmvp4aONVi-102" style="rounded=0;orthogonalLoop=1;jettySize=auto;html=1;exitX=0;exitY=0.5;exitDx=0;exitDy=0;entryX=1;entryY=0.5;entryDx=0;entryDy=0;endArrow=none;endFill=0;" parent="1" source="qH5SO-dXOydmvp4aONVi-89" target="qH5SO-dXOydmvp4aONVi-5" edge="1">
          <mxGeometry relative="1" as="geometry" />
        </mxCell>
        <mxCell id="qH5SO-dXOydmvp4aONVi-89" value="numeroCliente" style="ellipse;whiteSpace=wrap;html=1;align=center;" parent="1" vertex="1">
          <mxGeometry x="730" y="470" width="100" height="40" as="geometry" />
        </mxCell>
        <mxCell id="qH5SO-dXOydmvp4aONVi-103" style="rounded=0;orthogonalLoop=1;jettySize=auto;html=1;exitX=0;exitY=0.5;exitDx=0;exitDy=0;entryX=1;entryY=0.75;entryDx=0;entryDy=0;endArrow=none;endFill=0;" parent="1" source="qH5SO-dXOydmvp4aONVi-90" target="qH5SO-dXOydmvp4aONVi-5" edge="1">
          <mxGeometry relative="1" as="geometry" />
        </mxCell>
        <mxCell id="qH5SO-dXOydmvp4aONVi-90" value="tipoCliente" style="ellipse;whiteSpace=wrap;html=1;align=center;" parent="1" vertex="1">
          <mxGeometry x="730" y="520" width="100" height="40" as="geometry" />
        </mxCell>
        <mxCell id="qH5SO-dXOydmvp4aONVi-112" style="rounded=0;orthogonalLoop=1;jettySize=auto;html=1;exitX=1;exitY=0;exitDx=0;exitDy=0;entryX=0;entryY=0.5;entryDx=0;entryDy=0;endArrow=none;endFill=0;" parent="1" source="qH5SO-dXOydmvp4aONVi-91" target="qH5SO-dXOydmvp4aONVi-5" edge="1">
          <mxGeometry relative="1" as="geometry" />
        </mxCell>
        <mxCell id="qH5SO-dXOydmvp4aONVi-91" value="descuentoImporteVenta" style="ellipse;whiteSpace=wrap;html=1;align=center;" parent="1" vertex="1">
          <mxGeometry x="310" y="470" width="150" height="40" as="geometry" />
        </mxCell>
        <mxCell id="qH5SO-dXOydmvp4aONVi-104" style="rounded=0;orthogonalLoop=1;jettySize=auto;html=1;exitX=0;exitY=0.5;exitDx=0;exitDy=0;entryX=1;entryY=1;entryDx=0;entryDy=0;endArrow=none;endFill=0;" parent="1" source="qH5SO-dXOydmvp4aONVi-92" target="qH5SO-dXOydmvp4aONVi-5" edge="1">
          <mxGeometry relative="1" as="geometry" />
        </mxCell>
        <mxCell id="qH5SO-dXOydmvp4aONVi-92" value="registroSuspendido" style="ellipse;whiteSpace=wrap;html=1;align=center;" parent="1" vertex="1">
          <mxGeometry x="720" y="570" width="110" height="40" as="geometry" />
        </mxCell>
        <mxCell id="qH5SO-dXOydmvp4aONVi-105" style="rounded=0;orthogonalLoop=1;jettySize=auto;html=1;exitX=0;exitY=0;exitDx=0;exitDy=0;entryX=0.89;entryY=1.014;entryDx=0;entryDy=0;endArrow=none;endFill=0;entryPerimeter=0;" parent="1" source="qH5SO-dXOydmvp4aONVi-93" target="qH5SO-dXOydmvp4aONVi-5" edge="1">
          <mxGeometry relative="1" as="geometry" />
        </mxCell>
        <mxCell id="qH5SO-dXOydmvp4aONVi-93" value="nombreComercial" style="ellipse;whiteSpace=wrap;html=1;align=center;" parent="1" vertex="1">
          <mxGeometry x="680" y="620" width="100" height="40" as="geometry" />
        </mxCell>
        <mxCell id="qH5SO-dXOydmvp4aONVi-106" style="rounded=0;orthogonalLoop=1;jettySize=auto;html=1;entryX=0.75;entryY=1;entryDx=0;entryDy=0;endArrow=none;endFill=0;" parent="1" source="qH5SO-dXOydmvp4aONVi-94" target="qH5SO-dXOydmvp4aONVi-5" edge="1">
          <mxGeometry relative="1" as="geometry" />
        </mxCell>
        <mxCell id="qH5SO-dXOydmvp4aONVi-94" value="fechaRegistro" style="ellipse;whiteSpace=wrap;html=1;align=center;" parent="1" vertex="1">
          <mxGeometry x="610" y="660" width="100" height="40" as="geometry" />
        </mxCell>
        <mxCell id="qH5SO-dXOydmvp4aONVi-107" style="rounded=0;orthogonalLoop=1;jettySize=auto;html=1;exitX=0.5;exitY=0;exitDx=0;exitDy=0;entryX=0.64;entryY=0.989;entryDx=0;entryDy=0;endArrow=none;endFill=0;entryPerimeter=0;" parent="1" source="qH5SO-dXOydmvp4aONVi-95" target="qH5SO-dXOydmvp4aONVi-5" edge="1">
          <mxGeometry relative="1" as="geometry" />
        </mxCell>
        <mxCell id="qH5SO-dXOydmvp4aONVi-95" value="fechaUltimaCompra" style="ellipse;whiteSpace=wrap;html=1;align=center;" parent="1" vertex="1">
          <mxGeometry x="530" y="700" width="130" height="40" as="geometry" />
        </mxCell>
        <mxCell id="qH5SO-dXOydmvp4aONVi-108" style="rounded=0;orthogonalLoop=1;jettySize=auto;html=1;exitX=0.5;exitY=0;exitDx=0;exitDy=0;entryX=0.5;entryY=1;entryDx=0;entryDy=0;endArrow=none;endFill=0;" parent="1" source="qH5SO-dXOydmvp4aONVi-96" target="qH5SO-dXOydmvp4aONVi-5" edge="1">
          <mxGeometry relative="1" as="geometry" />
        </mxCell>
        <mxCell id="qH5SO-dXOydmvp4aONVi-96" value="giroComercial" style="ellipse;whiteSpace=wrap;html=1;align=center;" parent="1" vertex="1">
          <mxGeometry x="480" y="660" width="100" height="40" as="geometry" />
        </mxCell>
        <mxCell id="qH5SO-dXOydmvp4aONVi-110" style="rounded=0;orthogonalLoop=1;jettySize=auto;html=1;exitX=1;exitY=0;exitDx=0;exitDy=0;entryX=0.25;entryY=1;entryDx=0;entryDy=0;endArrow=none;endFill=0;" parent="1" source="qH5SO-dXOydmvp4aONVi-97" target="qH5SO-dXOydmvp4aONVi-5" edge="1">
          <mxGeometry relative="1" as="geometry" />
        </mxCell>
        <mxCell id="qH5SO-dXOydmvp4aONVi-97" value="telefono1" style="ellipse;whiteSpace=wrap;html=1;align=center;" parent="1" vertex="1">
          <mxGeometry x="375" y="570" width="100" height="40" as="geometry" />
        </mxCell>
        <mxCell id="qH5SO-dXOydmvp4aONVi-109" style="rounded=0;orthogonalLoop=1;jettySize=auto;html=1;exitX=0.8;exitY=0;exitDx=0;exitDy=0;entryX=0.35;entryY=0.989;entryDx=0;entryDy=0;entryPerimeter=0;endArrow=none;endFill=0;exitPerimeter=0;" parent="1" source="qH5SO-dXOydmvp4aONVi-98" target="qH5SO-dXOydmvp4aONVi-5" edge="1">
          <mxGeometry relative="1" as="geometry" />
        </mxCell>
        <mxCell id="qH5SO-dXOydmvp4aONVi-98" value="email" style="ellipse;whiteSpace=wrap;html=1;align=center;" parent="1" vertex="1">
          <mxGeometry x="410" y="620" width="100" height="40" as="geometry" />
        </mxCell>
        <mxCell id="qH5SO-dXOydmvp4aONVi-111" style="rounded=0;orthogonalLoop=1;jettySize=auto;html=1;exitX=1;exitY=0;exitDx=0;exitDy=0;entryX=0;entryY=1;entryDx=0;entryDy=0;endArrow=none;endFill=0;" parent="1" source="qH5SO-dXOydmvp4aONVi-99" target="qH5SO-dXOydmvp4aONVi-5" edge="1">
          <mxGeometry relative="1" as="geometry" />
        </mxCell>
        <mxCell id="qH5SO-dXOydmvp4aONVi-99" value="telefono2" style="ellipse;whiteSpace=wrap;html=1;align=center;" parent="1" vertex="1">
          <mxGeometry x="360" y="520" width="100" height="40" as="geometry" />
        </mxCell>
        <mxCell id="Y2IvVhkUB4ipjXZV8t1b-2" style="rounded=0;orthogonalLoop=1;jettySize=auto;html=1;exitX=1;exitY=0.5;exitDx=0;exitDy=0;endArrow=none;endFill=0;entryX=0;entryY=0.25;entryDx=0;entryDy=0;" edge="1" parent="1" source="Y2IvVhkUB4ipjXZV8t1b-1" target="qH5SO-dXOydmvp4aONVi-6">
          <mxGeometry relative="1" as="geometry" />
        </mxCell>
        <mxCell id="Y2IvVhkUB4ipjXZV8t1b-1" value="titulo" style="ellipse;whiteSpace=wrap;html=1;align=center;" vertex="1" parent="1">
          <mxGeometry x="15" y="230" width="100" height="40" as="geometry" />
        </mxCell>
        <mxCell id="Y2IvVhkUB4ipjXZV8t1b-5" value="" style="rounded=0;orthogonalLoop=1;jettySize=auto;html=1;endArrow=none;endFill=0;" edge="1" parent="1" source="Y2IvVhkUB4ipjXZV8t1b-3" target="qH5SO-dXOydmvp4aONVi-6">
          <mxGeometry relative="1" as="geometry" />
        </mxCell>
        <mxCell id="Y2IvVhkUB4ipjXZV8t1b-3" value="descripcion" style="ellipse;whiteSpace=wrap;html=1;align=center;" vertex="1" parent="1">
          <mxGeometry x="10" y="280" width="100" height="40" as="geometry" />
        </mxCell>
        <mxCell id="Y2IvVhkUB4ipjXZV8t1b-7" style="rounded=0;orthogonalLoop=1;jettySize=auto;html=1;exitX=1;exitY=0.5;exitDx=0;exitDy=0;entryX=0;entryY=1;entryDx=0;entryDy=0;endArrow=none;endFill=0;" edge="1" parent="1" source="Y2IvVhkUB4ipjXZV8t1b-6" target="qH5SO-dXOydmvp4aONVi-6">
          <mxGeometry relative="1" as="geometry" />
        </mxCell>
        <mxCell id="Y2IvVhkUB4ipjXZV8t1b-6" value="fechaFin" style="ellipse;whiteSpace=wrap;html=1;align=center;" vertex="1" parent="1">
          <mxGeometry y="380" width="100" height="40" as="geometry" />
        </mxCell>
      </root>
    </mxGraphModel>
  </diagram>
</mxfile>
